<?xml version="1.0" encoding="UTF-8" standalone="no"?>
<!DOCTYPE svg PUBLIC "-//W3C//DTD SVG 1.1//EN" "http://www.w3.org/Graphics/SVG/1.1/DTD/svg11.dtd">
<svg width="100px" height="93px" version="1.1" xmlns="http://www.w3.org/2000/svg" xmlns:xlink="http://www.w3.org/1999/xlink" xml:space="preserve" xmlns:serif="http://www.serif.com/" style="fill-rule:evenodd;clip-rule:evenodd;stroke-linejoin:round;stroke-miterlimit:2;">
    <path d="M39.518,38.894c-6.23,-3.592 -10.433,-10.317 -10.448,-18.021c-0.022,-11.498 9.295,-20.851 20.793,-20.873c11.499,-0.022 20.852,9.295 20.874,20.794c0.014,7.708 -4.168,14.452 -10.391,18.067l8.378,14.461c3.06,-1.777 6.613,-2.798 10.403,-2.806c11.498,-0.022 20.851,9.296 20.873,20.794c0.022,11.498 -9.295,20.851 -20.794,20.873c-11.498,0.022 -20.851,-9.295 -20.873,-20.793l-16.666,0.031c0.022,11.499 -9.296,20.852 -20.794,20.874c-11.498,0.022 -20.851,-9.296 -20.873,-20.794c-0.022,-11.498 9.295,-20.851 20.794,-20.873c3.781,-0.007 7.331,0.996 10.392,2.754l8.332,-14.488Zm39.633,24.122c4.599,-0.008 8.34,3.718 8.349,8.318c0.009,4.599 -3.718,8.34 -8.318,8.349c-4.599,0.009 -8.34,-3.718 -8.349,-8.317c-0.009,-4.6 3.718,-8.341 8.318,-8.35Zm-58.334,0.112c4.6,-0.009 8.341,3.718 8.35,8.317c0.008,4.6 -3.718,8.341 -8.318,8.35c-4.599,0.008 -8.34,-3.719 -8.349,-8.318c-0.009,-4.599 3.718,-8.34 8.317,-8.349Zm32.313,-18.165c-2.125,-0.733 -4.435,-0.728 -6.557,0.013c0.002,1.367 0.009,2.735 0.019,4.102c-1.812,1.112 -2.936,3.068 -2.985,5.193c-1.187,0.68 -2.372,1.363 -3.554,2.049c0.427,2.207 1.586,4.205 3.289,5.672c1.183,-0.686 2.364,-1.375 3.543,-2.067c1.87,1.013 4.125,1.008 5.99,-0.012c1.182,0.688 2.366,1.373 3.552,2.054c1.697,-1.474 2.848,-3.476 3.267,-5.685c-1.185,-0.681 -2.373,-1.36 -3.562,-2.035c-0.057,-2.125 -1.189,-4.076 -3.005,-5.181c0.005,-1.368 0.006,-2.735 0.003,-4.103Zm-3.243,-32.463c4.6,-0.009 8.341,3.718 8.35,8.317c0.008,4.6 -3.719,8.341 -8.318,8.35c-4.599,0.008 -8.34,-3.718 -8.349,-8.318c-0.009,-4.599 3.718,-8.34 8.317,-8.349Z" style="fill:#d1cb6c;"/>
</svg>
