<?xml version="1.0" encoding="UTF-8" standalone="no"?>
<!DOCTYPE svg PUBLIC "-//W3C//DTD SVG 1.1//EN" "http://www.w3.org/Graphics/SVG/1.1/DTD/svg11.dtd">
<svg width="100px" height="93px" version="1.1" xmlns="http://www.w3.org/2000/svg" xmlns:xlink="http://www.w3.org/1999/xlink" xml:space="preserve" xmlns:serif="http://www.serif.com/" style="fill-rule:evenodd;clip-rule:evenodd;stroke-linejoin:round;stroke-miterlimit:2;">
    <path d="M39.518,38.894C33.288,35.302 29.085,28.577 29.07,20.873C29.048,9.375 38.365,0.022 49.863,0C61.362,-0.022 70.715,9.295 70.737,20.794C70.751,28.502 66.569,35.246 60.346,38.861L68.724,53.322C71.784,51.545 75.337,50.524 79.127,50.516C90.625,50.494 99.978,59.812 100,71.31C100.022,82.808 90.705,92.161 79.206,92.183C67.708,92.205 58.355,82.888 58.333,71.39L41.667,71.421C41.689,82.92 32.371,92.273 20.873,92.295C9.375,92.317 0.022,82.999 0,71.501C-0.022,60.003 9.295,50.65 20.794,50.628C24.575,50.621 28.125,51.624 31.186,53.382L39.518,38.894ZM79.151,63.016C83.75,63.008 87.491,66.734 87.5,71.334C87.509,75.933 83.782,79.674 79.182,79.683C74.583,79.692 70.842,75.965 70.833,71.366C70.824,66.766 74.551,63.025 79.151,63.016ZM20.817,63.128C25.417,63.119 29.158,66.846 29.167,71.445C29.175,76.045 25.449,79.786 20.849,79.795C16.25,79.803 12.509,76.076 12.5,71.477C12.491,66.878 16.218,63.137 20.817,63.128ZM53.13,44.963C51.005,44.23 48.695,44.235 46.573,44.976C46.575,46.343 46.582,47.711 46.592,49.078C44.78,50.19 43.656,52.146 43.607,54.271C42.42,54.951 41.235,55.634 40.053,56.32C40.48,58.527 41.639,60.525 43.342,61.992C44.525,61.306 45.706,60.617 46.885,59.925C48.755,60.938 51.01,60.933 52.875,59.913C54.057,60.601 55.241,61.286 56.427,61.967C58.124,60.493 59.275,58.491 59.694,56.282C58.509,55.601 57.321,54.922 56.132,54.247C56.075,52.122 54.943,50.171 53.127,49.066C53.132,47.698 53.133,46.331 53.13,44.963ZM49.887,12.5C54.487,12.491 58.228,16.218 58.237,20.817C58.245,25.417 54.518,29.158 49.919,29.167C45.32,29.175 41.579,25.449 41.57,20.849C41.561,16.25 45.288,12.509 49.887,12.5Z" style="fill:#d1cb6c;"/>
</svg>
